<?xml version="1.0" encoding="UTF-8"?>
<svg id="Layer_1" data-name="Layer 1" xmlns="http://www.w3.org/2000/svg" viewBox="0 0 1080 1080">
  <defs>
    <style>
      .cls-1 {
        fill: #fff;
      }
    </style>
  </defs>
  <rect x="-24.05" y="-24.05" width="1128.1" height="1128.1"/>
  <g>
    <circle class="cls-1" cx="540" cy="290.87" r="70.36"/>
    <path class="cls-1" d="M687.23,400.07c0,37.1-65.92,93.4-147.23,93.4s-147.23-56.17-147.23-93.4c0-46.04,61.54-21.87,142.85-21.87s151.62-24.17,151.62,21.87Z"/>
  </g>
  <g>
    <path class="cls-1" d="M282.47,756.52c-2.44-3.92-6.8-5.67-11.25-5.67-6.45,0-13.16,3.05-13.16,10.37,0,5.67,3.14,8.19,12.99,11.33,9.59,3.05,18.48,6.19,18.48,18.31s-10.55,18.04-21.71,18.04c-7.15,0-14.82-2.35-19-8.54l6.28-5.14c2.62,4.53,7.85,6.89,13.16,6.89,6.28,0,13.42-3.66,13.42-10.72,0-7.58-5.14-8.89-16.13-12.55-8.72-2.88-15.34-6.71-15.34-17,0-11.86,10.2-17.78,21.01-17.78,6.89,0,12.73,1.92,17.26,7.24l-6.01,5.23Z"/>
    <path class="cls-1" d="M321.43,772.3h-12.03v20.4c0,5.23.09,9.42,6.1,9.42,2,0,4.18-.44,6.01-1.39l.26,6.19c-2.35,1.05-5.41,1.48-7.93,1.48-9.68,0-11.25-5.23-11.25-13.69v-22.4h-8.89v-5.75h8.89v-11.59h6.8v11.59h12.03v5.75Z"/>
    <path class="cls-1" d="M364.93,799.93c-4.79,6.19-10.55,8.46-18.13,8.46-12.81,0-20.66-9.59-20.66-21.44,0-12.64,8.89-21.44,20.92-21.44s19.35,7.84,19.35,21.36v2.18h-32.95c.52,7.06,5.93,13.08,13.34,13.08,5.84,0,9.76-2.09,12.99-6.19l5.14,4.01ZM359.09,783.28c-.26-6.89-4.79-11.51-12.29-11.51s-12.47,4.62-13.34,11.51h25.63Z"/>
    <path class="cls-1" d="M375.12,771.77c4.18-4.27,10.29-6.28,16.21-6.28,12.03,0,17.09,5.75,17.09,17.26v17.52c0,2.35.26,4.97.61,7.06h-6.54c-.44-1.83-.44-4.36-.44-6.1h-.17c-2.7,4.18-7.24,7.15-13.42,7.15-8.28,0-15.17-4.18-15.17-12.12,0-13.51,15.69-14.3,25.72-14.3h2.62v-1.22c0-5.93-3.75-8.98-10.11-8.98-4.36,0-8.89,1.48-12.12,4.45l-4.27-4.45ZM394.82,787.73c-8.63,0-14.21,2.35-14.21,7.85,0,5.14,3.83,7.06,8.98,7.06,7.85,0,11.86-5.67,12.03-12.29v-2.62h-6.8Z"/>
    <path class="cls-1" d="M453.49,800.11h-.17c-2.53,4.62-8.37,8.28-15.69,8.28-11.42,0-20.4-9.24-20.4-21.44s8.63-21.44,21.45-21.44c5.93,0,10.9,2.61,14.64,6.97h.17v-31.03h6.8v65.9h-6.8v-7.24ZM439.02,771.77c-8.8,0-14.47,6.62-14.47,15.17s5.67,15.17,14.47,15.17,14.47-6.62,14.47-15.17-5.67-15.17-14.47-15.17Z"/>
    <path class="cls-1" d="M486.52,816.67c-2.7,6.89-5.4,11.59-13.6,11.59-1.92,0-4.27-.17-6.1-1.05l.87-5.93c1.39.52,2.88.7,4.79.7,4.45,0,6.1-2.7,7.58-6.71l2.79-7.67-16.91-41.06h7.93l12.64,31.99h.17l12.12-31.99h7.41l-19.7,50.12Z"/>
    <path class="cls-1" d="M536.38,745.62h18.31c11.33,0,21.62,4.01,21.62,16.91s-11.51,17.09-20.22,17.09h-12.38v27.72h-7.32v-61.72ZM543.7,772.82h12.38c7.32,0,12.38-3.31,12.38-10.2s-5.06-10.2-12.38-10.2h-12.38v20.4Z"/>
    <path class="cls-1" d="M621.98,799.93c-4.79,6.19-10.55,8.46-18.13,8.46-12.81,0-20.66-9.59-20.66-21.44,0-12.64,8.89-21.44,20.92-21.44s19.35,7.84,19.35,21.36v2.18h-32.95c.52,7.06,5.93,13.08,13.34,13.08,5.84,0,9.76-2.09,12.99-6.19l5.14,4.01ZM616.14,783.28c-.26-6.89-4.79-11.51-12.29-11.51s-12.47,4.62-13.34,11.51h25.63Z"/>
    <path class="cls-1" d="M632.35,741.44h6.8v31.03h.17c3.75-4.36,8.72-6.97,14.64-6.97,12.82,0,21.45,9.07,21.45,21.44s-8.98,21.44-20.4,21.44c-7.32,0-13.16-3.66-15.69-8.28h-.17v7.24h-6.8v-65.9ZM653.62,802.11c8.8,0,14.47-6.62,14.47-15.17s-5.67-15.17-14.47-15.17-14.47,6.62-14.47,15.17,5.67,15.17,14.47,15.17Z"/>
    <path class="cls-1" d="M684.3,741.44h6.8v31.03h.17c3.75-4.36,8.72-6.97,14.64-6.97,12.82,0,21.45,9.07,21.45,21.44s-8.98,21.44-20.4,21.44c-7.32,0-13.16-3.66-15.69-8.28h-.17v7.24h-6.8v-65.9ZM705.57,802.11c8.8,0,14.47-6.62,14.47-15.17s-5.67-15.17-14.47-15.17-14.47,6.62-14.47,15.17,5.67,15.17,14.47,15.17Z"/>
    <path class="cls-1" d="M737.21,741.44h6.8v65.9h-6.8v-65.9Z"/>
    <path class="cls-1" d="M792.65,799.93c-4.79,6.19-10.55,8.46-18.13,8.46-12.81,0-20.66-9.59-20.66-21.44,0-12.64,8.89-21.44,20.92-21.44s19.35,7.84,19.35,21.36v2.18h-32.95c.52,7.06,5.93,13.08,13.34,13.08,5.84,0,9.76-2.09,12.99-6.19l5.14,4.01ZM786.81,783.28c-.26-6.89-4.79-11.51-12.29-11.51s-12.47,4.62-13.34,11.51h25.63Z"/>
    <path class="cls-1" d="M804.24,796.62c2.7,3.31,5.67,5.49,10.46,5.49,4.27,0,8.98-1.83,8.98-6.28s-4.36-5.49-8.72-6.45c-7.76-1.74-14.38-3.4-14.38-11.86,0-7.93,7.67-12.03,15.26-12.03,5.75,0,11.07,2.18,13.86,7.41l-5.67,3.75c-1.74-2.88-4.62-4.88-8.63-4.88-3.75,0-8.02,1.83-8.02,5.67,0,3.4,4.88,4.88,10.29,5.93,7.24,1.39,13.34,4.01,13.34,12.2,0,9.24-8.19,12.81-16.3,12.81-6.89,0-11.86-1.83-15.87-7.58l5.4-4.18Z"/>
  </g>
  <g>
    <path class="cls-1" d="M536.69,539.03c-51.6,13.79-101.63,33.75-148.32,59.73-10.85,6.06-21.79,12.72-32.06,19.68-26.11-30.37-40.21-69.04-29.4-90.27,16.68-32.79,136.85-8.52,209.78,10.86Z"/>
    <path class="cls-1" d="M723.67,618.43c-78.67,86.98-288.59,87.03-367.36.01,57.06-34.63,119.67-59.84,184.11-76.88,43.87,11.95,96.02,30.5,139.43,52.64,14.96,7.39,29.58,15.48,43.82,24.23Z"/>
    <path class="cls-1" d="M723.67,618.43c-6.94-4.65-13.96-9.2-21.19-13.41-7.02-4.17-14.67-8.49-21.87-12.31-43.67-22.76-89.88-41.49-137.63-53.6,72.9-19.39,193.41-43.78,210.11-10.94,10.79,21.23-3.3,59.9-29.42,90.26Z"/>
  </g>
</svg>